<svg width="700" height="600" xmlns="http://www.w3.org/2000/svg">
 <g>
  <title>Layer 1</title>
  <polygon stroke="#000" points="7,299.9999694824219 178.5,597.0379638671875 521.5,597.0379638671875 693,299.9999694824219 521.5,2.96197509765625 178.5,2.96197509765625 " fill=" white" id="svg_3" stroke-width="10"/>
  <path stroke="#000" id="svg_1" d="m293.31859,88.56737c-2.18178,12.35375 -7.7548,24.16035 -8.13007,36.89945c0.49932,7.37592 -4.44902,11.33787 -11.22317,11.19838c-7.2858,7.55227 0.89929,19.48781 9.14299,22.53643c8.41317,5.64727 18.8503,-0.66296 27.18431,4.40287c11.06618,8.65057 15.68605,23.98821 11.86823,37.43448c-3.79594,11.09993 15.63524,7.06298 8.32652,-1.81005c-5.64481,-8.6727 10.64087,-5.80534 6.47164,2.42859c-0.78782,6.60956 4.87538,8.7489 2.35507,15.15236c6.56583,3.76487 -0.55039,5.87288 -4.5496,6.58374c-9.36523,4.66854 1.69399,-8.36295 -5.72514,-12.21741c-6.79406,1.47656 -2.19039,12.85371 -4.52242,11.53967c-4.80088,-3.75933 -4.79734,-17.81439 -12.85484,-8.64363c-2.6742,-11.3 2.20511,-23.06849 -1.55363,-34.30288c1.53973,-8.39 -11.70698,-11.28393 -10.03151,-1.55295c0.66792,14.85154 -3.84191,29.67351 -1.25359,44.45188c3.56485,9.11518 13.53518,13.22145 19.79284,20.25537c5.13924,5.42355 11.80182,11.22222 19.80076,9.51469c9.07247,-0.39327 18.16167,-1.23115 27.1932,0.20925c11.35983,0.35829 20.03166,-8.62099 29.72613,-13.23343c11.3966,-9.0494 9.60224,-25.21352 8.46614,-38.08903c-1.39307,-7.94921 1.66386,-15.90204 1.09417,-23.77685c-8.21633,-10.05316 -14.95746,7.61728 -12.61692,15.20909c-0.00057,9.54992 1.83338,21.85184 -7.27647,28.07274c-7.51808,-0.18957 -14.67312,2.54121 -22.24919,1.1134c-6.14755,3.65067 -16.10507,3.55692 -18.13425,-5.13361c-0.81013,-7.71777 2.68688,-15.80906 -2.06459,-23.01188c4.17474,3.59558 11.45838,-3.10538 7.39915,4.95567c-4.9511,6.56168 4.1924,16.6728 7.6345,6.98766c1.14199,-6.49817 -4.93976,-15.12264 5.05736,-13.73045c2.03876,2.2921 -6.96219,18.32528 5.34154,14.27352c8.77189,-1.92145 -1.56059,-15.68154 10.31826,-15.72935c5.74893,-6.76813 4.20104,-19.4541 12.99484,-24.58861c9.80504,-6.63557 25.11401,-1.84495 32.11226,-13.08225c5.96503,-5.75054 3.15791,-21.68913 -7.1296,-16.4079c-12.85607,1.25327 -2.65298,-17.41245 -3.01169,-24.40669c3.02911,-6.09174 -3.67862,-18.91485 -1.36885,-20.27532c4.36439,6.67745 5.92754,14.48747 4.98892,22.29116c-0.08066,6.61779 -2.88717,24.5529 6.31318,13.49674c3.11456,-7.70517 2.20872,-16.43266 4.42769,-24.449c4.27981,-17.30706 -3.38328,-34.62375 -11.92618,-49.28273c-7.27585,-7.89163 -16.51275,-14.18254 -25.1869,-20.37647c-14.59023,-5.48737 -30.70011,-6.47041 -46.10962,-5.09515c-13.63033,2.36259 -28.04437,4.85343 -38.90266,14.14682c-10.58234,6.23534 -20.71715,14.51684 -24.90078,26.49799c-3.64586,9.65202 -10.03022,19.48141 -7.12859,30.20341c2.77502,8.93799 1.30321,18.22041 1.75252,27.35594c4.73059,10.44101 9.19684,-5.34273 8.75414,-10.56347c0.26189,-9.9002 5.48514,-18.66332 9.33393,-27.45218l-0.00001,-0.00002zm86.8881,21.23957c9.72813,0.69709 22.04542,6.11438 22.3109,17.40837c1.47921,11.33381 -7.67873,22.31991 -19.41488,21.20845c-10.66019,-0.87564 -17.47798,-10.08379 -16.77012,-20.43636c-3.569,-7.42291 1.98499,-15.37294 9.43896,-17.07934c1.44547,-0.48605 2.93126,-0.84987 4.43514,-1.10112l0,0.00001zm-65.64853,0.96535c11.28535,-2.00703 24.12521,4.99387 24.16289,17.48575c1.05992,12.07635 -11.76145,14.44234 -20.50762,17.46765c-6.05195,3.90766 -12.3385,0.26934 -17.3672,-3.66776c-6.52449,-6.82914 -4.60679,-20.59089 2.28241,-26.82473c3.3407,-2.4724 7.47622,-3.44431 11.42953,-4.46091zm38.61681,31.85844c5.46337,7.5091 12.02219,18.95999 4.95687,27.48254c-6.27207,5.03012 -7.06282,-7.15481 -13.64596,-1.41621c-6.17575,-5.4087 -0.47979,-16.41487 3.85347,-21.90944c1.42822,-1.58223 3.06259,-2.9752 4.83562,-4.15689z" stroke-width="0" fill="#000000"/>
  <path fill="#027242" stroke-width="0" d="m505.93503,341.05112c10.2526,19.65778 12.25416,25.62757 8.86429,26.43829c-6.6219,1.58372 -5.29123,10.64126 3.97724,27.0718c11.62364,20.60569 34.3908,33.25947 55.77617,30.99989c8.30057,-0.87704 17.68472,-2.68706 20.85368,-4.0223c3.16894,-1.33525 1.22436,1.15218 -4.32131,5.52759c-27.74264,21.88829 -62.00602,20.36358 -89.34076,-3.97558c-10.89888,-9.70452 -25.89403,-38.0584 -25.89403,-48.96229c0,-3.089 -2.47219,-6.08212 -5.49374,-6.65135c-4.9414,-0.93091 -4.27779,-3.382 6.60047,-24.37945c6.65182,-12.83948 12.91342,-24.26548 13.91465,-25.39112c1.00126,-1.12564 7.77974,9.37939 15.06332,23.3445l0,0l0.00003,0.00001l-0.00001,0.00001zm88.12996,37.89778c-10.25262,-19.65778 -12.25416,-25.62758 -8.8643,-26.43829c6.6219,-1.58369 5.29123,-10.64126 -3.97722,-27.0718c-11.62365,-20.6057 -34.39083,-33.25947 -55.77619,-30.99991c-8.30057,0.87703 -17.68471,2.68707 -20.85367,4.02233c-3.16896,1.33523 -1.22437,-1.1522 4.3213,-5.5276c27.74264,-21.8883 62.00602,-20.36361 89.34076,3.97559c10.89888,9.70448 25.89402,38.05838 25.89402,48.96226c0,3.08902 2.47221,6.08212 5.49373,6.65135c4.94142,0.93092 4.2778,3.382 -6.60045,24.37945c-6.65182,12.83946 -12.91342,24.26548 -13.91465,25.39112c-1.00126,1.12564 -7.77974,-9.37937 -15.06332,-23.34449l0,0l0,-0.00001l-0.00001,0z" id="svg_13" stroke="#000000"/>
  <text fill="#b9bf09" stroke-width="0" x="518.18046" y="405.01469" id="svg_16" font-size="70" font-family="'Arimo'" text-anchor="start" xml:space="preserve" stroke="#ffffff" transform="matrix(1.43406 0 0 1.43406 -219.49 -188.989)">5</text>
  <path fill="url(#svg_27)" stroke-width="0" d="m53.04625,355.20055l19.13827,1.34399l5.12031,32.74559l16.93111,-7.91667l24.55416,25.1268l9.34847,-14.66383l78.73937,62.70902l-43.74937,-69.9339l36.33959,-9.09176l-11.37129,-13.52713l24.94934,-24.82741l-17.93,-6.00416l5.63784,-32.68052l-18.79607,3.42509l-15.46361,-30.1578l-13.69453,11.7669l-31.65549,-18.06019l-4.24506,16.3728l-37.79697,-0.22861l6.55219,15.78044l-31.93817,17.67556l15.26914,10.17791l-15.93926,29.96787l0.00001,0.00001l0.00002,0z" id="svg_10" stroke="#000000"/>
  <text fill="#ffffff" stroke-width="0" x="97.2" y="343.85982" id="svg_11" font-size="70" font-family="'Arimo'" text-anchor="start" xml:space="preserve" stroke="#000000" transform="matrix(1.42857 0 0 1.42857 -33.0198 -124.26)">2</text>
  <path fill="#ad0c0c" stroke-width="0" d="m338,317.16848c33.99405,-97.52392 167.18386,0 0,125.3879c-167.18386,-125.3879 -33.99405,-222.91181 0,-125.3879z" id="svg_7" stroke="#000000"/>
  <text fill="#ffffff" stroke-width="0" x="393.13666" y="346.87784" id="svg_9" font-size="70" font-family="'Arimo'" text-anchor="start" xml:space="preserve" stroke="#000000" transform="matrix(1.34174 0 0 1.34174 -215.608 -70.4942)">4</text>
  <line fill="none" x1="126.49316" y1="501.20783" x2="575.1466" y2="501.20783" id="svg_28" stroke-width="10" stroke="#000"/>
  <g stroke="null" id="svg_14">
   <path stroke="#000" id="svg_4" d="m482.14573,164.96345c-1.29347,6.81913 2.37006,13.30826 5.22978,19.1991c6.09259,10.39042 13.16116,20.39086 22.03182,28.4662c6.05269,5.11698 11.5063,11.00995 18.35986,15.06423c8.95993,6.20048 18.58057,11.27799 28.55639,15.50058c7.41768,3.32014 15.19666,5.67558 23.14453,7.22043c2.31178,0.61546 8.77522,2.35368 4.75434,-1.72459c-3.33527,-1.44637 -6.8834,-2.5017 -10.23701,-4.0102c-16.28036,-6.86522 -33.58016,-12.89718 -46.71393,-25.42219c-2.17629,-2.96836 4.17572,1.60333 5.27024,2.85701c10.95701,8.01175 23.4745,13.38378 35.81941,18.69004c6.27999,2.13692 13.14466,6.69203 19.8165,3.45958c5.76354,-2.26179 -1.37831,-2.6085 -3.92485,-3.46997c-11.31887,-3.30551 -22.77111,-6.48294 -33.159,-12.33189c-5.93164,-2.22879 -10.91703,-6.33191 -16.24569,-9.71384c-5.75684,-4.08408 -11.02562,-8.85598 -16.63008,-13.16302c-3.6677,-2.85624 -7.31182,-5.73919 -10.34828,-9.31905c-5.13485,-5.27732 -10.11476,-10.70467 -14.76881,-16.4356c-3.04051,-3.52547 -6.46105,-6.75322 -8.59828,-10.9813l-2.35694,-3.88553zm119.5363,66.60467c-0.70179,-0.02272 -1.42632,0.13507 -2.03325,0.55063c-4.5318,2.32717 -3.5607,6.64903 -6.1503,9.97356c-1.9422,2.65961 -4.2081,3.98943 -7.44509,4.98678c0.6474,1.3298 1.94219,3.32452 1.94219,4.98678c0,3.65697 -4.20809,6.98148 -7.44509,6.64903c-1.29481,-0.33245 -4.2081,-1.99472 -5.1792,0c-0.3237,0.66492 -0.3237,1.32981 0,1.66227c0,1.32981 1.6185,1.99472 2.9133,2.65961c3.5607,0.99735 7.4451,-0.33245 10.3584,-2.32717c2.26589,-1.3298 3.88439,-3.65697 4.5318,-6.31659l0.6474,-4.32186c0.3237,-1.3298 1.6185,-1.66227 3.237,-3.98942c1.94219,-2.65961 3.8844,-7.31396 6.474,-9.30866c0.97109,-0.6649 1.94219,-0.99736 3.23699,-1.32981c-0.6474,-0.99735 -1.29481,-1.66225 -1.9422,-2.6596c-0.6474,-0.33247 -1.29479,-0.99736 -1.94219,-0.99736c-0.36417,-0.12466 -0.7827,-0.20455 -1.20375,-0.21818zm13.70666,12.55007c-1.21695,-0.01388 -2.48844,0.25972 -3.76301,0.63374l2.5896,1.66227c-0.64741,1.3298 -2.26589,3.98942 -1.9422,5.65168c0.32371,3.32452 4.8555,3.32452 6.7977,1.3298c2.2659,-2.65961 2.2659,-6.64903 -0.97109,-8.64375c-0.84972,-0.43634 -1.76448,-0.62294 -2.71099,-0.63374zm-6.24135,1.63111c-0.2534,0.00092 -0.50107,0.00337 -0.74855,0.01039c-1.79389,0.10097 -3.58708,0.23991 -5.3815,0.32206c-1.12738,0.01492 -2.27816,-0.00226 -3.36851,0.33245c-1.47892,0.96948 -2.4676,2.57681 -3.04481,4.24914c-0.07768,0.24101 -0.1436,0.48864 -0.1922,0.73762c1.80022,0.83739 3.80905,0.74766 5.73555,0.6753c1.16734,-0.03206 2.335,0.11758 3.50001,0.17661c0.83323,0.0379 1.66452,0.15476 2.49856,0.12468c1.02271,-0.03484 1.9698,-0.63038 2.50866,-1.51682c0.46578,-0.7576 0.90646,-1.54115 1.19365,-2.38951c0.23198,-0.76139 0.27482,-1.81955 -0.49566,-2.27522c-0.67054,-0.38032 -1.44502,-0.44955 -2.20522,-0.44673l0.00001,0zm1.18354,7.64639c-0.32371,0.33245 -0.6474,0.33245 -0.97111,0.6649c-0.3237,1.66227 3.88441,5.6517 4.5318,1.99472c-1.6185,-0.6649 -2.58962,-1.32981 -3.56069,-2.65961l0,0z" fill="#bf0000"/>
   <path stroke="#000" id="svg_12" d="m605.62786,164.40607c1.28828,6.81913 -2.36054,13.30827 -5.20877,19.1991c-6.06813,10.39042 -13.1083,20.39086 -21.94334,28.4662c-6.02838,5.11698 -11.46009,11.00995 -18.28612,15.06423c-8.92395,6.20048 -18.50595,11.27799 -28.44171,15.50058c-7.38789,3.32014 -15.13563,5.67558 -23.05158,7.22043c-2.3025,0.61546 -8.73998,2.35368 -4.73525,-1.72459c3.32187,-1.44637 6.85575,-2.50171 10.1959,-4.0102c16.21497,-6.86522 33.44529,-12.89718 46.52631,-25.42219c2.16755,-2.96836 -4.15895,1.60333 -5.24907,2.85701c-10.913,8.01175 -23.38023,13.38378 -35.67555,18.69004c-6.25477,2.13692 -13.09187,6.69203 -19.73691,3.45958c-5.74039,-2.26179 1.37278,-2.6085 3.90909,-3.46997c11.27341,-3.30551 22.67965,-6.48294 33.02583,-12.33189c5.90782,-2.22879 10.87318,-6.33191 16.18044,-9.71384c5.73372,-4.08409 10.98134,-8.85598 16.56329,-13.16302c3.65297,-2.85624 7.28245,-5.73919 10.30672,-9.31905c5.11423,-5.27731 10.07414,-10.70467 14.70949,-16.4356c3.0283,-3.52547 6.4351,-6.75322 8.56374,-10.9813l2.34747,-3.88553zm-119.05621,66.60468c0.69897,-0.02272 1.42059,0.13506 2.02508,0.55063c4.51359,2.32717 3.5464,6.64903 6.1256,9.97356c1.9344,2.65961 4.1912,3.98943 7.41519,4.98678c-0.6448,1.3298 -1.93439,3.32451 -1.93439,4.98678c0,3.65697 4.19119,6.98148 7.41519,6.64903c1.28961,-0.33245 4.1912,-1.99472 5.1584,0c0.3224,0.66492 0.3224,1.32982 0,1.66227c0,1.32982 -1.612,1.99472 -2.9016,2.65961c-3.5464,0.99735 -7.4152,-0.33245 -10.3168,-2.32717c-2.25679,-1.3298 -3.86879,-3.65697 -4.51359,-6.31659l-0.6448,-4.32186c-0.3224,-1.3298 -1.612,-1.66227 -3.224,-3.98942c-1.93439,-2.65961 -3.8688,-7.31396 -6.448,-9.30867c-0.96719,-0.6649 -1.93439,-0.99736 -3.22399,-1.32981c0.6448,-0.99735 1.2896,-1.66225 1.9344,-2.6596c0.6448,-0.33247 1.28959,-0.99736 1.93439,-0.99736c0.36271,-0.12466 0.77956,-0.20455 1.19892,-0.21817zm-13.65161,12.55006c1.21207,-0.01388 2.47845,0.25972 3.7479,0.63374l-2.5792,1.66227c0.64481,1.3298 2.25679,3.98942 1.9344,5.65168c-0.32241,3.32452 -4.836,3.32452 -6.7704,1.3298c-2.2568,-2.65962 -2.2568,-6.64903 0.96719,-8.64375c0.8463,-0.43634 1.75739,-0.62294 2.7001,-0.63374zm6.21628,1.63111c0.25238,0.00092 0.49905,0.00337 0.74554,0.01039c1.78669,0.10097 3.57267,0.23991 5.35989,0.32206c1.12285,0.01492 2.26901,-0.00226 3.35498,0.33245c1.47298,0.96948 2.45769,2.57681 3.03258,4.24914c0.07737,0.24101 0.14302,0.48864 0.19143,0.73762c-1.79299,0.83739 -3.79375,0.74766 -5.71252,0.6753c-1.16265,-0.03205 -2.32563,0.11758 -3.48595,0.17661c-0.82988,0.0379 -1.65783,0.15476 -2.48852,0.12468c-1.01861,-0.03484 -1.96189,-0.63038 -2.49859,-1.51682c-0.4639,-0.7576 -0.90281,-1.54116 -1.18886,-2.38951c-0.23104,-0.76139 -0.27372,-1.81955 0.49367,-2.27522c0.66785,-0.38032 1.43922,-0.44954 2.19636,-0.44673l-0.00001,0.00001zm-1.17879,7.64638c0.32241,0.33245 0.6448,0.33245 0.96721,0.6649c0.3224,1.66227 -3.8688,5.6517 -4.5136,1.99472c1.612,-0.6649 2.57921,-1.32982 3.54639,-2.65961l0,-0.00001z" fill="#bf0000"/>
  </g>
  <g stroke="null" id="svg_18">
   <path stroke="#000" id="svg_15" d="m93.14573,164.96345c-1.29348,6.81913 2.37005,13.30826 5.22977,19.1991c6.0926,10.39042 13.16116,20.39086 22.03182,28.4662c6.05269,5.11698 11.5063,11.00995 18.35986,15.06423c8.95993,6.20048 18.58057,11.27799 28.5564,15.50058c7.41767,3.32013 15.19666,5.67558 23.14453,7.22043c2.31178,0.61546 8.77522,2.35368 4.75434,-1.72459c-3.33526,-1.44637 -6.8834,-2.5017 -10.23701,-4.0102c-16.28036,-6.86523 -33.58015,-12.89719 -46.71393,-25.42219c-2.17629,-2.96837 4.17573,1.60332 5.27024,2.85701c10.957,8.01174 23.4745,13.38377 35.81941,18.69003c6.27998,2.13693 13.14465,6.69203 19.81649,3.45958c5.76354,-2.26178 -1.37831,-2.60849 -3.92485,-3.46996c-11.31887,-3.30551 -22.7711,-6.48294 -33.159,-12.33189c-5.93165,-2.22879 -10.91703,-6.33191 -16.24569,-9.71384c-5.75684,-4.08408 -11.02562,-8.85598 -16.63008,-13.16301c-3.6677,-2.85624 -7.31182,-5.7392 -10.34828,-9.31905c-5.13486,-5.27732 -10.11477,-10.70467 -14.76881,-16.4356c-3.04051,-3.52547 -6.46105,-6.75321 -8.59828,-10.9813l-2.35693,-3.88553zm119.53629,66.60467c-0.70179,-0.02272 -1.42631,0.13507 -2.03325,0.55063c-4.53179,2.32716 -3.5607,6.64903 -6.1503,9.97356c-1.9422,2.65961 -4.2081,3.98943 -7.44509,4.98678c0.6474,1.3298 1.94219,3.32452 1.94219,4.98678c0,3.65697 -4.20809,6.98148 -7.44509,6.64903c-1.29481,-0.33245 -4.2081,-1.99471 -5.1792,0c-0.3237,0.66492 -0.3237,1.32982 0,1.66227c0,1.32981 1.6185,1.99471 2.9133,2.65961c3.56069,0.99735 7.4451,-0.33245 10.3584,-2.32717c2.26589,-1.3298 3.88439,-3.65696 4.53179,-6.31659l0.6474,-4.32187c0.3237,-1.32979 1.6185,-1.66226 3.237,-3.98941c1.9422,-2.65962 3.8844,-7.31397 6.474,-9.30867c0.9711,-0.6649 1.94219,-0.99736 3.237,-1.32981c-0.6474,-0.99735 -1.29481,-1.66225 -1.94221,-2.6596c-0.64739,-0.33247 -1.29479,-0.99736 -1.94218,-0.99736c-0.36417,-0.12467 -0.78271,-0.20455 -1.20376,-0.21818zm13.70666,12.55006c-1.21696,-0.01387 -2.48845,0.25973 -3.76301,0.63374l2.58959,1.66227c-0.64741,1.3298 -2.26588,3.98942 -1.9422,5.65168c0.32371,3.32452 4.8555,3.32452 6.7977,1.3298c2.2659,-2.65961 2.2659,-6.64903 -0.97109,-8.64375c-0.84972,-0.43634 -1.76448,-0.62294 -2.71099,-0.63374zm-6.24135,1.63111c-0.2534,0.00092 -0.50106,0.00338 -0.74855,0.01039c-1.79389,0.10097 -3.58708,0.23991 -5.3815,0.32206c-1.12738,0.01492 -2.27816,-0.00226 -3.36851,0.33245c-1.47892,0.96948 -2.4676,2.57681 -3.0448,4.24914c-0.07769,0.24102 -0.1436,0.48864 -0.1922,0.73763c1.80022,0.83739 3.80905,0.74766 5.73555,0.6753c1.16734,-0.03206 2.33501,0.11758 3.50001,0.17661c0.83323,0.0379 1.66452,0.15476 2.49856,0.12468c1.02272,-0.03484 1.9698,-0.63038 2.50866,-1.51682c0.46578,-0.75759 0.90646,-1.54115 1.19365,-2.3895c0.23198,-0.76139 0.27483,-1.81955 -0.49566,-2.27522c-0.67054,-0.38032 -1.44502,-0.44954 -2.20522,-0.44672l0.00001,0zm1.18354,7.64639c-0.32371,0.33245 -0.6474,0.33245 -0.97111,0.6649c-0.32369,1.66226 3.88441,5.6517 4.5318,1.99471c-1.6185,-0.6649 -2.58961,-1.32981 -3.56069,-2.65961l0,0z" fill="#bf0000"/>
   <path stroke="#000" id="svg_17" d="m216.62786,164.40607c1.28828,6.81913 -2.36054,13.30826 -5.20877,19.1991c-6.06813,10.39042 -13.1083,20.39086 -21.94334,28.4662c-6.02838,5.11698 -11.46009,11.00995 -18.28612,15.06423c-8.92395,6.20048 -18.50595,11.27799 -28.4417,15.50058c-7.38789,3.32014 -15.13563,5.67558 -23.05158,7.22043c-2.3025,0.61546 -8.73998,2.35369 -4.73525,-1.72459c3.32187,-1.44636 6.85575,-2.5017 10.19589,-4.0102c16.21498,-6.86522 33.44529,-12.89719 46.52632,-25.42219c2.16755,-2.96836 -4.15895,1.60332 -5.24907,2.85701c-10.913,8.01175 -23.38023,13.38378 -35.67555,18.69004c-6.25476,2.13692 -13.09186,6.69202 -19.73691,3.45958c-5.74039,-2.26179 1.37278,-2.6085 3.90909,-3.46997c11.27341,-3.30551 22.67965,-6.48294 33.02583,-12.33189c5.90782,-2.22878 10.87318,-6.33191 16.18044,-9.71383c5.73372,-4.08409 10.98134,-8.85599 16.56329,-13.16302c3.65297,-2.85624 7.28246,-5.7392 10.30672,-9.31905c5.11423,-5.27731 10.07414,-10.70467 14.70949,-16.4356c3.0283,-3.52547 6.4351,-6.75321 8.56375,-10.9813l2.34747,-3.88553zm-119.05621,66.60467c0.69898,-0.02271 1.42059,0.13507 2.02509,0.55063c4.51359,2.32717 3.54639,6.64903 6.12559,9.97356c1.93441,2.65962 4.1912,3.98943 7.41519,4.98678c-0.64479,1.3298 -1.93439,3.32452 -1.93439,4.98678c0,3.65697 4.19119,6.98149 7.41519,6.64903c1.28961,-0.33245 4.1912,-1.99471 5.1584,0c0.3224,0.66492 0.3224,1.32982 0,1.66227c0,1.32981 -1.612,1.99472 -2.9016,2.65961c-3.54639,0.99735 -7.41519,-0.33245 -10.31679,-2.32716c-2.2568,-1.3298 -3.8688,-3.65697 -4.5136,-6.3166l-0.6448,-4.32186c-0.32239,-1.3298 -1.612,-1.66227 -3.224,-3.98942c-1.93439,-2.65961 -3.86879,-7.31396 -6.448,-9.30867c-0.96719,-0.6649 -1.93439,-0.99736 -3.22399,-1.32981c0.6448,-0.99735 1.2896,-1.66225 1.9344,-2.6596c0.6448,-0.33246 1.28959,-0.99736 1.93439,-0.99736c0.36271,-0.12467 0.77956,-0.20455 1.19892,-0.21818zm-13.65161,12.55007c1.21207,-0.01388 2.47845,0.25972 3.7479,0.63374l-2.57919,1.66226c0.64481,1.3298 2.25678,3.98942 1.9344,5.65168c-0.32242,3.32452 -4.836,3.32452 -6.7704,1.3298c-2.25681,-2.65961 -2.25681,-6.64903 0.96719,-8.64374c0.8463,-0.43634 1.75739,-0.62295 2.7001,-0.63374zm6.21628,1.6311c0.25238,0.00092 0.49905,0.00338 0.74554,0.01039c1.7867,0.10097 3.57268,0.23992 5.35989,0.32206c1.12286,0.01492 2.26902,-0.00226 3.35499,0.33246c1.47297,0.96947 2.45768,2.57681 3.03257,4.24914c0.07737,0.24101 0.14302,0.48864 0.19143,0.73762c-1.793,0.8374 -3.79375,0.74766 -5.71252,0.6753c-1.16265,-0.03205 -2.32563,0.11758 -3.48595,0.17662c-0.82989,0.03789 -1.65784,0.15475 -2.48853,0.12467c-1.01861,-0.03484 -1.96189,-0.63037 -2.49858,-1.51681c-0.46391,-0.7576 -0.90282,-1.54116 -1.18886,-2.38951c-0.23105,-0.76139 -0.27372,-1.81955 0.49367,-2.27522c0.66785,-0.38032 1.43922,-0.44954 2.19636,-0.44672l-0.00001,0zm-1.17878,7.64639c0.32241,0.33245 0.64479,0.33245 0.9672,0.6649c0.3224,1.66227 -3.8688,5.6517 -4.5136,1.99472c1.61201,-0.66491 2.57922,-1.32982 3.5464,-2.65962l0,0z" fill="#bf0000"/>
  </g>
  <path id="svg_25" d="m539.64705,204.85908c-5.34457,-1.4178 -8.44083,-7.2467 -8.07561,-12.53448c-0.13682,-6.90683 0.50042,-14.17458 -2.80236,-20.52534c-1.88255,-4.74173 -5.08948,-8.92825 -6.42778,-13.86965c-1.66538,-7.66624 0.39172,-16.35514 6.58986,-21.50179c6.99004,-5.98958 18.15262,-6.77025 25.84727,-1.67947c5.4271,3.73826 9.34287,9.90394 9.19739,16.63215c0.63681,5.02746 -1.34738,9.75623 -3.68156,14.07815c-1.67234,3.47989 -3.6254,6.88513 -5.14331,10.40382c-0.40016,7.21461 -0.17066,14.4954 -1.25605,21.64796c-1.80806,5.54241 -8.62192,9.3107 -14.24785,7.34864l0,0zm14.1158,-12.89985c-3.17185,-1.70972 -7.72979,-0.59814 -11.4166,-0.96622c-3.01164,0.60237 -8.363,-1.23552 -9.96405,1.5214c3.6615,1.43232 7.96452,0.35863 11.86254,0.5956c3.119,-0.29956 6.70747,0.28407 9.51811,-1.15078l0,0zm-0.23755,-3.2172c0.46679,-4.34371 -6.40211,-2.12719 -9.19251,-2.77381c-3.69328,0.74755 -9.57081,-1.60016 -11.89359,1.73726c1.37641,3.35385 7.51483,0.99512 10.73823,1.73926c3.43743,-0.12181 7.00359,0.1232 10.34787,-0.7027l0,0zm0.04277,-7.61055c0.90678,-8.46165 6.08046,-15.50705 9.07625,-23.24731c2.46311,-9.26732 -2.41501,-19.85479 -11.24679,-23.74482c-8.79068,-4.35675 -20.50272,-1.06549 -25.47062,7.47148c-4.78661,7.05176 -3.87312,16.63312 0.80519,23.4909c3.33809,5.99334 6.00138,12.72859 5.56754,19.70346c6.9291,0 13.85821,0 20.78732,0c0.16038,-1.22455 0.3207,-2.44918 0.48111,-3.67371zm-15.33988,-11.98787c-2.74534,-4.77348 -5.56363,-9.58375 -7.47535,-14.75703c1.71876,-2.22485 2.21875,-4.7031 2.75268,-7.31719c4.82404,-0.94756 -0.61404,5.4974 3.94053,5.64263c4.04288,1.75902 2.26933,-8.53534 5.62823,-4.82471c-2.41114,4.07239 4.73611,8.12365 4.99842,2.29791c-0.34649,-4.39871 4.31999,-3.57458 2.50063,0.41596c0.15016,2.0528 3.49241,2.64132 3.54964,4.29236c-2.40609,5.21901 -4.49749,10.60723 -7.34657,15.60353c-0.6413,-1.93443 2.52227,-6.78277 3.53316,-9.62949c1.95064,-2.46075 3.62684,-9.09226 -1.45835,-8.18832c-2.94986,4.60102 -6.91805,-2.90024 -9.80637,1.50915c-2.45189,0.73138 -6.30817,-4.24631 -7.01943,0.53983c1.84666,5.68471 5.68914,10.52952 7.69959,16.15554c-0.6822,-0.40222 -1.07066,-1.10787 -1.4968,-1.74018l0,0zm-3.85338,-20.83375c-1.33499,-0.65155 0.56268,3.46374 -0.00003,0l0.00003,0zm7.9792,0.48607c-1.73295,-2.93283 -0.80354,3.55844 0,0zm7.73411,0c-1.73295,-2.93283 -0.80355,3.55844 0,0zm-36.00589,-21.67107c-3.06296,-3.10862 -6.44869,-6.02554 -9.11246,-9.45209c6.65468,5.50859 12.74559,11.71243 18.74274,17.93182c1.59251,2.18833 -2.77823,-2.04354 -3.59169,-2.7529c-2.03537,-1.88502 -4.04409,-3.79868 -6.03859,-5.72683l0,0zm47.29826,8.88786c5.17715,-6.45072 10.00755,-13.21338 15.58928,-19.32048c-0.93465,2.62941 -3.94336,5.77569 -5.83513,8.48374c-3.15924,3.93043 -6.11229,8.08614 -9.72496,11.61015c-0.4509,0.4766 -1.1242,-0.65226 -0.02915,-0.77341l-0.00005,0l0,0zm-11.21383,-6.11971c1.78875,-5.11634 4.38336,-9.9865 7.27802,-14.56551c-0.06728,2.54021 -3.13727,7.35474 -4.6129,10.5045c-0.83475,1.26749 -1.53885,3.28888 -2.66512,4.06101zm-22.90667,-6.56152c-1.24603,-1.81751 -4.99691,-6.04952 -4.29656,-6.62665c3.61633,4.00964 7.29443,8.14821 9.89222,12.88996c-2.21229,-1.69673 -3.80412,-4.14736 -5.59566,-6.2633l0,0zm14.32057,-1.4304c-0.25218,-1.70689 0.53066,-9.85519 0.96556,-4.32232c0.00155,3.4666 0.36339,7.36914 -0.60152,10.52439c-0.4132,-2.02858 -0.31295,-4.14045 -0.36404,-6.20207z" stroke="#000" fill="#00bf5f"/>
  <path id="svg_26" d="m152.64705,204.85908c-5.34457,-1.41781 -8.44083,-7.2467 -8.07561,-12.53448c-0.13682,-6.90684 0.50043,-14.17459 -2.80236,-20.52534c-1.88254,-4.74173 -5.08948,-8.92825 -6.42778,-13.86965c-1.66538,-7.66624 0.39172,-16.35514 6.58986,-21.50178c6.99004,-5.98958 18.15262,-6.77025 25.84727,-1.67948c5.42709,3.73826 9.34286,9.90394 9.19739,16.63215c0.63681,5.02747 -1.34738,9.75623 -3.68156,14.07815c-1.67234,3.47989 -3.6254,6.88513 -5.14331,10.40382c-0.40016,7.21461 -0.17066,14.4954 -1.25605,21.64796c-1.80805,5.54241 -8.62192,9.3107 -14.24785,7.34864l0,0.00001zm14.11581,-12.89986c-3.17185,-1.70972 -7.72979,-0.59814 -11.4166,-0.96622c-3.01164,0.60238 -8.363,-1.23551 -9.96405,1.5214c3.66149,1.43232 7.96452,0.35863 11.86253,0.5956c3.119,-0.29956 6.70747,0.28407 9.51812,-1.15078l0,0zm-0.23755,-3.2172c0.46679,-4.3437 -6.40211,-2.12719 -9.19251,-2.77381c-3.69329,0.74755 -9.57081,-1.60016 -11.89359,1.73726c1.37641,3.35384 7.51483,0.99512 10.73823,1.73925c3.43742,-0.12181 7.00358,0.1232 10.34787,-0.7027l0,0zm0.04276,-7.61055c0.90679,-8.46165 6.08047,-15.50705 9.07626,-23.24731c2.46311,-9.26731 -2.41501,-19.85479 -11.24679,-23.74482c-8.79068,-4.35675 -20.50272,-1.06549 -25.47062,7.47148c-4.78662,7.05176 -3.87312,16.63312 0.80519,23.4909c3.33809,5.99333 6.00138,12.72859 5.56754,19.70346c6.9291,0 13.85821,0 20.78731,0c0.16038,-1.22455 0.32071,-2.44919 0.48111,-3.67371zm-15.33987,-11.98787c-2.74534,-4.77348 -5.56363,-9.58374 -7.47535,-14.75703c1.71875,-2.22485 2.21875,-4.7031 2.75268,-7.31719c4.82403,-0.94756 -0.61405,5.4974 3.94053,5.64264c4.04288,1.75902 2.26933,-8.53535 5.62823,-4.82471c-2.41114,4.07239 4.73611,8.12365 4.99842,2.2979c-0.34648,-4.39871 4.31999,-3.57457 2.50063,0.41596c0.15016,2.05281 3.49241,2.64132 3.54964,4.29237c-2.40609,5.219 -4.4975,10.60722 -7.34658,15.60353c-0.64129,-1.93443 2.52227,-6.78277 3.53316,-9.62949c1.95064,-2.46075 3.62684,-9.09227 -1.45835,-8.18832c-2.94986,4.60102 -6.91805,-2.90024 -9.80637,1.50915c-2.45189,0.73137 -6.30817,-4.24631 -7.01943,0.53983c1.84665,5.6847 5.68913,10.52951 7.69959,16.15554c-0.6822,-0.40222 -1.07066,-1.10788 -1.4968,-1.74018l0,0zm-3.85339,-20.83375c-1.33498,-0.65154 0.56269,3.46375 -0.00002,0l0.00002,0zm7.9792,0.48608c-1.73295,-2.93283 -0.80354,3.55844 0,0zm7.73411,0c-1.73295,-2.93283 -0.80355,3.55844 0,0zm-36.00589,-21.67108c-3.06296,-3.10861 -6.44868,-6.02554 -9.11245,-9.45209c6.65467,5.50859 12.74559,11.71244 18.74274,17.93182c1.5925,2.18833 -2.77824,-2.04354 -3.5917,-2.7529c-2.03537,-1.88501 -4.04409,-3.79868 -6.03859,-5.72683l0,0zm47.29827,8.88786c5.17715,-6.45071 10.00755,-13.21338 15.58928,-19.32048c-0.93465,2.62941 -3.94336,5.77569 -5.83513,8.48374c-3.15923,3.93043 -6.11229,8.08614 -9.72496,11.61015c-0.45089,0.4766 -1.1242,-0.65226 -0.02914,-0.77341l-0.00005,0l0,0zm-11.21383,-6.1197c1.78875,-5.11634 4.38336,-9.9865 7.27802,-14.56551c-0.06728,2.54021 -3.13728,7.35474 -4.61291,10.5045c-0.83475,1.26749 -1.53885,3.28887 -2.66511,4.06101zm-22.90667,-6.56152c-1.24603,-1.81751 -4.99691,-6.04952 -4.29656,-6.62665c3.61633,4.00964 7.29442,8.14821 9.89222,12.88995c-2.21229,-1.69672 -3.80412,-4.14736 -5.59566,-6.2633l0,0zm14.32057,-1.4304c-0.25218,-1.70689 0.53066,-9.85519 0.96556,-4.32232c0.00155,3.46659 0.36339,7.36913 -0.60152,10.52439c-0.4132,-2.02858 -0.31295,-4.14046 -0.36404,-6.20207z" stroke="#000" fill="#00bf5f"/>
 </g>
 <defs>
  <radialGradient id="svg_27" spreadMethod="pad" cx="0.55078" cy="0.41486" r="2.38874">
   <stop stop-color="#0000ff" offset="0" stop-opacity="0.99609"/>
   <stop stop-color="#ed0b0b" stop-opacity="0.99219" offset="0.35156"/>
  </radialGradient>
 </defs>
</svg>
