<svg width="700" height="600" xmlns="http://www.w3.org/2000/svg">
 <g>
  <title>Layer 1</title>
  <polygon stroke-width="10" id="svg_3" fill=" white" points="7,299.9999694824219 178.5,597.0379638671875 521.5,597.0379638671875 693,299.9999694824219 521.5,2.96197509765625 178.5,2.96197509765625 " stroke="#000"/>
  <line stroke="#000" stroke-width="10" id="svg_2" y2="97.20783" x2="573.1466" y1="97.20783" x1="124.49316" fill="none"/>
  <path stroke="#000" id="svg_1" d="m314.44738,40.64412l27.15998,0l8.39264,-25.80187l8.39265,25.80187l27.15997,0l-21.97284,15.94625l8.39308,25.80187l-21.97285,-15.94668l-21.97285,15.94668l8.39308,-25.80187l-21.97285,-15.94625z" stroke-width="0" fill="#e5a320"/>
  <path stroke="#000000" id="svg_13" d="m505.93503,341.05112c10.2526,19.65778 12.25416,25.62757 8.86429,26.43829c-6.6219,1.58372 -5.29123,10.64126 3.97724,27.0718c11.62364,20.60569 34.3908,33.25947 55.77617,30.99989c8.30057,-0.87704 17.68472,-2.68706 20.85368,-4.0223c3.16894,-1.33525 1.22436,1.15218 -4.32131,5.52759c-27.74264,21.88829 -62.00602,20.36358 -89.34076,-3.97558c-10.89888,-9.70452 -25.89403,-38.0584 -25.89403,-48.96229c0,-3.089 -2.47219,-6.08212 -5.49374,-6.65135c-4.9414,-0.93091 -4.27779,-3.382 6.60047,-24.37945c6.65182,-12.83948 12.91342,-24.26548 13.91465,-25.39112c1.00126,-1.12564 7.77974,9.37939 15.06332,23.3445l0,0l0.00003,0.00001zm88.12996,37.89778c-10.25262,-19.65778 -12.25416,-25.62758 -8.8643,-26.43829c6.6219,-1.58369 5.29123,-10.64126 -3.97722,-27.0718c-11.62365,-20.6057 -34.39083,-33.25947 -55.77619,-30.99991c-8.30057,0.87703 -17.68471,2.68707 -20.85367,4.02233c-3.16896,1.33523 -1.22437,-1.1522 4.3213,-5.5276c27.74264,-21.8883 62.00602,-20.36361 89.34076,3.97559c10.89888,9.70448 25.89402,38.05838 25.89402,48.96226c0,3.08902 2.47221,6.08212 5.49373,6.65135c4.94142,0.93092 4.2778,3.382 -6.60045,24.37945c-6.65182,12.83946 -12.91342,24.26548 -13.91465,25.39112c-1.00126,1.12564 -7.77974,-9.37937 -15.06332,-23.34449l0,0l0,-0.00001z" stroke-width="0" fill="#027242"/>
  <text transform="matrix(1.43406 0 0 1.43406 -219.49 -188.989)" stroke="#ffffff" xml:space="preserve" text-anchor="start" font-family="'Arimo'" font-size="70" id="svg_16" y="405.01469" x="518.18046" stroke-width="0" fill="#b9bf09">5</text>
  <path stroke="#000000" id="svg_10" d="m53.04625,355.20055l19.13827,1.34399l5.12031,32.74559l16.93111,-7.91667l24.55416,25.1268l9.34847,-14.66383l78.73937,62.70902l-43.74937,-69.9339l36.33959,-9.09176l-11.37129,-13.52713l24.94934,-24.82741l-17.93,-6.00416l5.63784,-32.68052l-18.79607,3.42509l-15.46361,-30.1578l-13.69453,11.7669l-31.65549,-18.06019l-4.24506,16.3728l-37.79697,-0.22861l6.55219,15.78044l-31.93817,17.67556l15.26914,10.17791l-15.93926,29.96787l0.00001,0.00001z" stroke-width="0" fill="url(#svg_27)"/>
  <text transform="matrix(1.42857 0 0 1.42857 -33.0198 -124.26)" stroke="#000000" xml:space="preserve" text-anchor="start" font-family="'Arimo'" font-size="70" id="svg_11" y="343.85982" x="97.2" stroke-width="0" fill="#ffffff">2</text>
  <path stroke="#000000" id="svg_7" d="m338,317.16848c33.99405,-97.52392 167.18386,0 0,125.3879c-167.18386,-125.3879 -33.99405,-222.91181 0,-125.3879z" stroke-width="0" fill="#ad0c0c"/>
  <text transform="matrix(1.34174 0 0 1.34174 -215.608 -70.4942)" stroke="#000000" xml:space="preserve" text-anchor="start" font-family="'Arimo'" font-size="70" id="svg_9" y="346.87784" x="393.13666" stroke-width="0" fill="#ffffff">4</text>
  <line stroke="#000" stroke-width="10" id="svg_28" y2="501.20783" x2="575.1466" y1="501.20783" x1="126.49316" fill="none"/>
  <path stroke="#000" id="svg_29" d="m407.78648,163.07919l-25.77913,7.1304c-2.36205,-6.2767 -5.91841,-11.71738 -10.2223,-16.04782l13.63268,-24.06288c1.19872,-2.12319 0.46003,-4.83027 -1.68086,-6.03784c-2.11877,-1.19872 -4.82142,-0.45118 -6.01572,1.66759l-12.9338,22.83319c-2.67169,-1.69413 -5.48492,-3.04767 -8.40431,-3.9633c-1.8401,-6.35631 -7.30733,-10.66463 -13.52652,-11.33255c-0.00442,-0.01769 -0.00885,-0.03539 -0.01327,-0.05308c-0.26982,-1.07044 -0.41137,-2.03473 -0.43349,-2.87516c-0.02212,-0.83601 0.05308,-1.55259 0.20347,-2.11877c0.16366,-0.57503 0.34944,-1.03948 0.55292,-1.40219c0.64581,-1.15006 1.50393,-1.90203 2.55226,-2.25147c0.10174,1.24295 0.62811,2.13204 1.55701,2.65842c0.68562,0.38925 1.48624,0.50868 2.41513,0.38041c0.93332,-0.13712 1.66317,-0.67235 2.19397,-1.60567c0.46445,-0.82274 0.56176,-1.72067 0.28309,-2.68496c-0.28309,-0.96871 -0.89793,-1.71625 -1.83126,-2.24262c-0.68119,-0.38483 -1.38892,-0.57946 -2.13204,-0.57061c-0.73869,0.00442 -1.44643,0.15039 -2.12762,0.42906c-0.67677,0.27867 -1.3093,0.70773 -1.89761,1.27834c-0.58388,0.57061 -1.06602,1.19872 -1.4597,1.88434c-0.58388,1.03506 -0.95544,2.19397 -1.10583,3.46346c-0.14597,1.26507 -0.16366,2.49918 -0.03981,3.71559c0.0752,0.70773 0.26982,1.33142 0.41579,1.98607c-1.65875,-0.09289 -3.35288,0.00885 -5.04259,0.47772c-2.13204,0.5883 -4.03849,1.5924 -5.66185,2.88843c-0.23001,-0.76081 -0.43349,-1.52162 -0.7962,-2.29128c-0.51311,-1.10141 -1.16333,-2.14973 -1.93742,-3.1671c-0.78735,-1.01294 -1.69856,-1.81356 -2.73361,-2.40186c-0.68119,-0.38041 -1.41989,-0.66792 -2.21608,-0.85812c-0.7962,-0.1902 -1.55701,-0.23001 -2.28243,-0.11943s-1.40662,0.35387 -2.048,0.72542c-0.64581,0.37156 -1.15006,0.90678 -1.53932,1.57913c-0.52638,0.93332 -0.6635,1.89318 -0.41579,2.86189c0.25655,0.97755 0.80062,1.69856 1.62336,2.16743c0.9289,0.52638 1.83568,0.61042 2.70265,0.24771c0.86697,-0.36271 1.49066,-0.88024 1.87991,-1.57028c0.52638,-0.9289 0.52195,-1.95953 -0.03096,-3.07421c1.07929,-0.24328 2.19839,-0.03539 3.34846,0.62369c0.35829,0.19905 0.75639,0.50868 1.1943,0.92005c0.42906,0.40695 0.8537,0.98198 1.26507,1.71625c0.41579,0.73427 0.79177,1.62778 1.11025,2.68938c0.0575,0.19463 0.10174,0.43349 0.15482,0.64581c-4.02965,3.66251 -6.00245,9.2359 -4.85681,14.84909c-2.57437,2.58322 -4.7418,5.61762 -6.44478,9.00146l-22.82435,-12.94264c-2.12319,-1.19872 -4.83027,-0.45118 -6.03341,1.66759c-1.19872,2.13204 -0.45118,4.83912 1.67202,6.04668l24.0673,13.63268c-1.46412,5.92725 -1.71183,12.41627 -0.51753,19.00702l-25.77913,7.13482c-2.36205,0.65023 -3.74213,3.0919 -3.08748,5.44511c0.65023,2.34436 3.08306,3.72886 5.44511,3.06979l26.00472,-7.19675c2.22493,4.67545 6.02899,10.08518 10.4877,15.2295l-14.12809,24.94312c-1.20314,2.12762 -0.46003,4.83027 1.67202,6.02899c1.05717,0.606 2.26474,0.71658 3.35288,0.41579c1.09698,-0.30079 2.07454,-1.01294 2.67169,-2.08339l12.80552,-22.59876c11.94297,11.4741 25.14217,18.23736 25.55796,4.65776c7.06847,11.32371 15.26489,-1.49508 19.9138,-17.58713l23.01455,13.03553c1.0616,0.61042 2.27359,0.71658 3.37057,0.41579c1.08814,-0.29636 2.06569,-1.01294 2.66726,-2.08339c1.20314,-2.11877 0.46003,-4.82585 -1.66759,-6.02457l-25.21736,-14.28291c1.28719,-6.6571 1.86664,-13.19477 1.41104,-18.30371l26.03568,-7.19675c2.34436,-0.65023 3.74655,-3.08306 3.07863,-5.43626c-0.65465,-2.35321 -3.09633,-3.73328 -5.44953,-3.08306z" stroke-width="0" fill="#000000"/>
   <path id="svg_40" d="m209.66964,465.76912c-24.02547,0 -43.50003,19.47564 -43.50003,43.50001c0,24.02437 19.47456,43.50001 43.50003,43.50001c24.02436,0 43.49999,-19.47564 43.49999,-43.50001c0,-24.02437 -19.47563,-43.50001 -43.49999,-43.50001zm0,81.78693c-4.63662,0 -8.3986,-3.76089 -8.3986,-8.39856s3.7586,-8.39873 8.3986,-8.39873c4.63882,0 8.39741,3.75872 8.39741,8.39873s-3.7586,8.39856 -8.39741,8.39856zm0,-23.06077l-23.51966,-19.64013l10.3829,0l0,-26.27351l26.27585,0l0,26.27351l10.37937,0l-23.51846,19.64013l0,0z" stroke-width="0" stroke="#000" fill="#bf0000"/>
 </g>
 <defs>
  <radialGradient r="2.38874" cy="0.41486" cx="0.55078" spreadMethod="pad" id="svg_27">
   <stop stop-opacity="0.99609" offset="0" stop-color="#0000ff"/>
   <stop offset="0.35156" stop-opacity="0.99219" stop-color="#ed0b0b"/>
  </radialGradient>
 </defs>
</svg>
