<svg width="700" height="600" xmlns="http://www.w3.org/2000/svg">
 <g id="Layer_1">
  <g id="svg_3">
   <path stroke-width="10" stroke="#000" id="svg_1" d="m4.33313,299.99998l148.14295,-296.28572l395.04784,0l148.14291,296.28572l-148.14291,296.28572l-395.04784,0l-148.14295,-296.28572z" fill="#fff"/>
   <line stroke-width="10" id="svg_2" y2="97.20783" x2="592.14661" y1="97.20783" x1="107.49313" stroke="#000" fill="none"/>
  </g>
  <text xml:space="preserve" text-anchor="start" font-family="'Arimo'" font-size="50" stroke-width="0" id="svg_4" y="65.71429" x="341.83316" stroke="#000" fill="#000000">I</text>
  <text xml:space="preserve" text-anchor="start" font-family="'Arimo'" font-size="200" stroke-width="0" id="svg_5" y="311.71429" x="278.83316" stroke="#000" fill="#000000">П</text>
  <path stroke="#000000" id="svg_7" d="m350,463.04814c25.33585,-72.68482 124.60254,0 0,93.45191c-124.60254,-93.45191 -25.33585,-166.13672 0,-93.45191z" stroke-width="0" fill="#ad0c0c"/>
  <text xml:space="preserve" text-anchor="start" font-family="'Arimo'" font-size="70" id="svg_9" y="521" x="326.53125" stroke-width="0" stroke="#000000" fill="#ffffff">4</text>
  <path stroke="#000000" id="svg_10" d="m108.04625,379.76273l13.39679,0.94079l3.58422,22.92191l11.85178,-5.54167l17.18791,17.58876l6.54393,-10.26468l55.11756,43.89631l-30.62456,-48.95373l25.43771,-6.36423l-7.9599,-9.46899l17.46454,-17.37919l-12.551,-4.20291l3.94649,-22.87636l-13.15725,2.39756l-10.82453,-21.11046l-9.58617,8.23683l-22.15884,-12.64213l-2.97154,11.46096l-26.45788,-0.16003l4.58653,11.04631l-22.35672,12.37289l10.6884,7.12454l-11.15748,20.97751z" stroke-width="0" fill="#000000"/>
  <text xml:space="preserve" text-anchor="start" font-family="'Arimo'" font-size="70" id="svg_11" y="388" x="145" stroke-width="0" stroke="#000000" fill="#ffffff">2</text>
  <path stroke="#000000" id="svg_13" d="m495.6732,356.59322c7.14935,13.70777 8.54508,17.87063 6.18125,18.43596c-4.61759,1.10436 -3.68968,7.42037 2.77341,18.87772c8.1054,14.36877 23.98141,23.19251 38.89387,21.61686c5.78816,-0.61158 12.33192,-1.87374 14.5417,-2.80483c2.20977,-0.9311 0.85377,0.80344 -3.01334,3.8545c-19.34551,15.26315 -43.23807,14.19994 -62.29914,-2.77225c-7.60001,-6.76716 -18.05644,-26.5389 -18.05644,-34.14241c0,-2.15402 -1.72391,-4.24119 -3.8309,-4.63812c-3.44574,-0.64914 -2.98299,-2.35834 4.60264,-17.00029c4.63845,-8.95323 9.00479,-16.92082 9.70297,-17.70575c0.6982,-0.78493 5.42497,6.54044 10.50396,16.2786l0,0zm61.45483,26.4269c-7.14936,-13.70777 -8.54508,-17.87064 -6.18126,-18.43596c4.61759,-1.10434 3.68968,-7.42037 -2.7734,-18.87772c-8.10541,-14.36878 -23.98143,-23.19251 -38.89388,-21.61687c-5.78816,0.61157 -12.33191,1.87375 -14.54169,2.80485c-2.20978,0.93108 -0.85378,-0.80345 3.01333,-3.85451c19.34551,-15.26316 43.23807,-14.19996 62.29914,2.77226c7.60001,6.76713 18.05643,26.53889 18.05643,34.14239c0,2.15404 1.72392,4.24119 3.83089,4.63812c3.44575,0.64915 2.983,2.35834 -4.60263,17.00029c-4.63845,8.95322 -9.00479,16.92082 -9.70297,17.70575c-0.6982,0.78493 -5.42497,-6.54043 -10.50396,-16.27859l0,0z" stroke-width="0" fill="#000000"/>
  <text xml:space="preserve" text-anchor="start" font-family="'Arimo'" font-size="70" id="svg_16" y="392" x="508" stroke-width="0" stroke="#ffffff" fill="#635656">5</text>
 </g>
</svg>
